<?xml version="1.0" encoding="utf-8"?>
<!-- Generator: Adobe Illustrator 21.0.0, SVG Export Plug-In . SVG Version: 6.00 Build 0)  -->
<svg version="1.1" id="Layer_1" xmlns="http://www.w3.org/2000/svg" xmlns:xlink="http://www.w3.org/1999/xlink" x="0px" y="0px"
	 viewBox="0 0 2000 1580" style="enable-background:new 0 0 2000 1580;" xml:space="preserve">
<style type="text/css">
	.st0{clip-path:url(#SVGID_2_);fill:#E2E2E2;}
	.st1{clip-path:url(#SVGID_4_);fill:#CCCCCC;}
	.st2{clip-path:url(#SVGID_6_);fill:#898989;}
	.st3{clip-path:url(#SVGID_8_);fill:#EF3535;}
	.st4{clip-path:url(#SVGID_10_);fill:#F74B4B;}
	.st5{fill:#FFEC39;}
	.st6{fill:#FC764C;}
	.st7{fill:#AAAAAA;}
	.st8{fill:#E0E0E0;}
	.st9{clip-path:url(#SVGID_12_);fill:#FFFFFF;}
	.st10{fill:#0067AD;}
	.st11{clip-path:url(#SVGID_14_);fill:#239DE8;}
	.st12{clip-path:url(#SVGID_16_);fill:#239DE8;}
	.st13{fill:#414649;}
	.st14{fill:#FAFEFF;}
	.st15{fill:#FFFFFF;}
</style>
<g id="rocket">
	<g>
		<g>
			<defs>
				<path id="SVGID_1_" d="M781.3,566.9L781.3,566.9l123.4-278.3l-169.9-59.2c0,0-239.5,154.5-244.2,157.5
					c-4.8,3-99.3,130.4-99.3,130.4L781.3,566.9z"/>
			</defs>
			<clipPath id="SVGID_2_">
				<use xlink:href="#SVGID_1_"  style="overflow:visible;"/>
			</clipPath>
			<path class="st0" d="M1506.8,13.6c-239.3-38.8-434.7,67.8-602.1,275c-201.3-12.8-295.4,101-374.8,230.1l254.4,35.2l-20.7,78.4
				l124.5,124.5l71.4-19.7l42.2,253.4c129.1-79.5,243.7-171.4,230.8-372.7C1439.8,450.4,1545.6,252.8,1506.8,13.6z M1101.7,505.5
				c-24,24-62.9,24-86.8,0c-24-24-24-62.9,0-86.8c24-24,62.9-24,86.8,0C1125.7,442.6,1125.7,481.5,1101.7,505.5z M1167.6,352.8
				c-38-38-38-99.5,0-137.5s99.5-38,137.5,0s38,99.5,0,137.5S1205.6,390.8,1167.6,352.8z"/>
		</g>
	</g>
	<g>
		<g>
			<defs>
				<path id="SVGID_3_" d="M955.3,740.9L955.3,740.9l277.9-127.8l59.6,180.3c0,0-154.5,233.5-157.5,238.2
					c-3,4.8-130.4,99.3-130.4,99.3L955.3,740.9z"/>
			</defs>
			<clipPath id="SVGID_4_">
				<use xlink:href="#SVGID_3_"  style="overflow:visible;"/>
			</clipPath>
			<path class="st1" d="M904.4,289.7c-201.3-12.8-293.2,101.8-372.7,230.8l258.4,35.2l-21.8,73.8l124,124l73-19.6l38.2,258.4
				c129.1-79.5,242.5-174,229.7-375.3c207.2-167.4,314.2-362.4,275.4-601.7C1269.4-23.4,1071.8,82.4,904.4,289.7z M1103.6,420.5
				c24,24,24,62.9,0,86.8c-24,24-62.9,24-86.8,0c-24-24-24-62.9,0-86.8C1040.8,396.6,1079.6,396.5,1103.6,420.5z M1169.4,217.1
				c38-38,99.5-38,137.5,0s38,99.5,0,137.5s-99.5,38-137.5,0C1131.5,316.7,1131.5,255.1,1169.4,217.1z"/>
		</g>
	</g>
	<g>
		<g>
			<defs>
				<path id="SVGID_5_" d="M904.4,289.7c-201.3-12.8-293.2,101.8-372.7,230.8l258.4,35.2l-21.8,73.8l124,124l73-19.6l38.2,258.4
					c129.1-79.5,242.5-174,229.7-375.3c207.2-167.4,314.2-362.4,275.4-601.7C1269.4-23.4,1071.8,82.4,904.4,289.7z M1103.6,420.5
					c24,24,24,62.9,0,86.8c-24,24-62.9,24-86.8,0c-24-24-24-62.9,0-86.8C1040.8,396.6,1079.6,396.5,1103.6,420.5z M1169.4,217.1
					c38-38,99.5-38,137.5,0s38,99.5,0,137.5s-99.5,38-137.5,0C1131.5,316.7,1131.5,255.1,1169.4,217.1z"/>
			</defs>
			<clipPath id="SVGID_6_">
				<use xlink:href="#SVGID_5_"  style="overflow:visible;"/>
			</clipPath>
			<path class="st2" d="M1362.7,192.8c-13.4,0.7-325.6-247-474.4,160.7C807.5,575,827.1,716,827.1,716l0,0l69.7,49.4l76.7,42.4l0,0
				c0,0,148-42.6,292.6-228.8C1532.3,236.2,1369.2,204.6,1362.7,192.8z"/>
		</g>
	</g>
	<g>
		<g>
			<defs>
				<path id="SVGID_7_" d="M981.7,973.2c0,0,18.6-4.9,106.9-69.4c119-86.9,212.1-235.7,212.1-235.7l-17.6,188.2l-261,160.2
					L981.7,973.2z"/>
			</defs>
			<clipPath id="SVGID_8_">
				<use xlink:href="#SVGID_7_"  style="overflow:visible;"/>
			</clipPath>
			<path class="st3" d="M904.4,289.7c-201.3-12.8-293.2,101.8-372.7,230.8l258.4,35.2l-21.8,73.8l124,124l73-19.6l38.2,258.4
				c129.1-79.5,242.5-174,229.7-375.3c207.2-167.4,314.2-362.4,275.4-601.7C1269.4-23.4,1071.8,82.4,904.4,289.7z M1103.6,420.5
				c24,24,24,62.9,0,86.8c-24,24-62.9,24-86.8,0c-24-24-24-62.9,0-86.8C1040.8,396.6,1079.6,396.5,1103.6,420.5z M1169.4,217.1
				c38-38,99.5-38,137.5,0s38,99.5,0,137.5s-99.5,38-137.5,0C1131.5,316.7,1131.5,255.1,1169.4,217.1z"/>
		</g>
	</g>
	<g>
		<g>
			<defs>
				<path id="SVGID_9_" d="M547,540.5c0,0,4.9-18.6,69.4-106.9C703.2,314.6,852,221.5,852,221.5l-188.2,17.6l-160.2,261L547,540.5z"
					/>
			</defs>
			<clipPath id="SVGID_10_">
				<use xlink:href="#SVGID_9_"  style="overflow:visible;"/>
			</clipPath>
			<path class="st4" d="M1506.8,13.6c-239.3-38.8-434.7,67.8-602.1,275c-201.3-12.8-295.4,101-374.8,230.1l254.4,35.2l-20.7,78.4
				l124.5,124.5l71.4-19.7l42.2,253.4c129.1-79.5,243.7-171.4,230.8-372.7C1439.8,450.4,1545.6,252.8,1506.8,13.6z M1101.7,505.5
				c-24,24-62.9,24-86.8,0c-24-24-24-62.9,0-86.8c24-24,62.9-24,86.8,0C1125.7,442.6,1125.7,481.5,1101.7,505.5z M1167.6,352.8
				c-38-38-38-99.5,0-137.5s99.5-38,137.5,0s38,99.5,0,137.5S1205.6,390.8,1167.6,352.8z"/>
		</g>
	</g>
	<polygon class="st5" points="860.3,787 734.6,661.2 591,798.2 587.3,934.2 723.3,930.5 	"/>
	<path class="st6" d="M860.3,787c-0.1,0.1-116.8,91.4-206.8,80.9c-10.5-90,81-206.7,81.1-206.7c-65.2,11.3-131.1,55.6-177.3,146.9
		c-29.9,57.5-52.2,145.4-61.8,217.9c72.5-9.6,160.4-31.9,217.9-61.8C804.7,918,849,852.2,860.3,787z"/>
	<path class="st7" d="M1428.2,1004.6"/>
	<path class="st8" d="M1511.1,10.7c-13.1-3-348.1-76.3-603.8,274.4c-139,190.4-139,344.4-139,344.4l0,0l62,62l62,62l0,0
		c0,0,154,0,344.5-138.9C1587.4,358.8,1514.1,23.8,1511.1,10.7z"/>
	<g>
		<g>
			<defs>
				<path id="SVGID_11_" d="M1511.1,10.7c-13.1-3-348.1-76.3-603.8,274.4c-139,190.4-139,344.4-139,344.4l0,0l62,62l62,62l0,0
					c0,0,154,0,344.5-138.9C1587.4,358.8,1514.1,23.8,1511.1,10.7z"/>
			</defs>
			<clipPath id="SVGID_12_">
				<use xlink:href="#SVGID_11_"  style="overflow:visible;"/>
			</clipPath>
			<path class="st9" d="M1441.1-59.3c-13.1-3-348.1-76.3-603.8,274.4c-139,190.4-139,344.4-139,344.4l0,0l62,62l62,62l0,0
				c0,0,154,0,344.5-138.9C1517.4,288.8,1444.1-46.2,1441.1-59.3z"/>
		</g>
	</g>
	<circle class="st10" cx="1232.7" cy="289.3" r="100.5"/>
	<g>
		<g>
			<defs>
				<circle id="SVGID_13_" cx="1242.7" cy="319.3" r="100.5"/>
			</defs>
			<clipPath id="SVGID_14_">
				<use xlink:href="#SVGID_13_"  style="overflow:visible;"/>
			</clipPath>
			<circle class="st11" cx="1232.7" cy="289.3" r="100.5"/>
		</g>
	</g>
	<circle class="st10" cx="1054.7" cy="466.3" r="64.5"/>
	<g>
		<g>
			<defs>
				<circle id="SVGID_15_" cx="1059.7" cy="482.3" r="64.5"/>
			</defs>
			<clipPath id="SVGID_16_">
				<use xlink:href="#SVGID_15_"  style="overflow:visible;"/>
			</clipPath>
			<circle class="st12" cx="1054.7" cy="466.3" r="64.5"/>
		</g>
	</g>
	<g>
		<path class="st13" d="M1232.7,188.8c55.5,0,100.5,45,100.5,100.5s-45,100.5-100.5,100.5s-100.5-45-100.5-100.5
			S1177.2,188.8,1232.7,188.8 M1232.7,172.8c-31.1,0-60.4,12.1-82.4,34.1s-34.1,51.3-34.1,82.4s12.1,60.4,34.1,82.4
			s51.3,34.1,82.4,34.1s60.4-12.1,82.4-34.1s34.1-51.3,34.1-82.4s-12.1-60.4-34.1-82.4S1263.8,172.8,1232.7,172.8L1232.7,172.8z"/>
	</g>
	<g>
		<path class="st13" d="M1054.7,401.8c35.6,0,64.5,28.9,64.5,64.5s-28.9,64.5-64.5,64.5s-64.5-28.9-64.5-64.5
			S1019.1,401.8,1054.7,401.8 M1054.7,385.8c-44.4,0-80.5,36.1-80.5,80.5s36.1,80.5,80.5,80.5s80.5-36.1,80.5-80.5
			S1099.1,385.8,1054.7,385.8L1054.7,385.8z"/>
	</g>
	
		<ellipse transform="matrix(0.9969 -7.899491e-02 7.899491e-02 0.9969 -14.8354 98.19)" class="st14" cx="1233.6" cy="236.6" rx="33" ry="17.2"/>
	
		<ellipse transform="matrix(0.9969 -7.899491e-02 7.899491e-02 0.9969 -30.3136 84.7424)" class="st14" cx="1055.9" cy="425.5" rx="14.7" ry="6.8"/>
</g>
<g id="text">
	<g>
		<path class="st15" d="M113.1,1351.5c-21.4,0.6-40.2,7-56.3,19.1c-16.1,12.1-27.3,28.7-33.8,49.8v149.2h-23v-238.7h22v58.8
			c8.3-16.8,19.2-30.5,32.8-41.1c13.6-10.6,28.2-16.6,43.9-18.1c3.1-0.3,5.8-0.5,8.3-0.5c2.4,0,4.4,0,6,0L113.1,1351.5L113.1,1351.5
			z"/>
		<path class="st15" d="M226.5,1574.2c-16.8,0-32.4-3.3-46.6-9.9c-14.2-6.6-26.6-15.5-37-26.9c-10.4-11.3-18.5-24.5-24.3-39.5
			s-8.7-30.8-8.7-47.3c0-16.8,3-32.8,9-47.8c6-15,14.2-28.2,24.6-39.5c10.4-11.3,22.7-20.3,37-26.9c14.2-6.6,29.6-9.9,46.2-9.9
			s31.8,3.3,45.9,9.9s26.4,15.5,37,26.9c10.6,11.3,18.8,24.5,24.8,39.5c6,15,9,30.9,9,47.8c0,16.5-3,32.3-9,47.3
			s-14.2,28.2-24.6,39.5s-22.7,20.3-37,26.9C258.4,1570.9,243,1574.2,226.5,1574.2z M132.9,1451.6c0,14.1,2.4,27.3,7.3,39.7
			c4.9,12.4,11.6,23.2,20,32.4c8.4,9.2,18.3,16.5,29.6,21.8c11.3,5.4,23.4,8,36.3,8s25-2.7,36.3-8c11.3-5.4,21.3-12.8,29.9-22.3
			c8.6-9.5,15.3-20.4,20.2-32.8c4.9-12.4,7.3-25.8,7.3-40.2c0-14.1-2.5-27.3-7.3-39.7c-4.9-12.4-11.6-23.3-20.2-32.6
			c-8.6-9.3-18.5-16.8-29.6-22.3c-11.2-5.5-23.2-8.3-36.1-8.3s-25,2.8-36.3,8.3s-21.2,13-29.6,22.5c-8.4,9.5-15.2,20.6-20.2,33.3
			C135.4,1424.2,132.9,1437.6,132.9,1451.6z"/>
		<path class="st15" d="M363.3,1449.3c0-16.8,2.9-32.8,8.7-47.8c5.8-15,13.9-28,24.3-39c10.4-11,22.8-19.8,37.2-26.2
			c14.4-6.4,30.2-9.6,47.3-9.6c21.7,0,40.9,4.9,57.4,14.7s28.9,23.4,37.2,40.9l-22.5,7.3c-7-13.2-17.1-23.5-30.1-31
			c-13-7.5-27.3-11.3-42.9-11.3c-13.2,0-25.4,2.6-36.7,7.8c-11.3,5.2-21.2,12.4-29.6,21.6c-8.4,9.2-15.1,20-20,32.4
			s-7.3,25.8-7.3,40.2s2.5,27.9,7.6,40.6c5.1,12.7,11.8,23.7,20.2,33.1c8.4,9.3,18.4,16.8,29.9,22.3s23.7,8.3,36.5,8.3
			c8.3,0,16.5-1.2,24.6-3.7c8.1-2.4,15.6-5.7,22.5-9.6c6.9-4,12.9-8.6,17.9-14c5.1-5.4,8.5-10.9,10.3-16.8l22.5,6.4
			c-3.1,8.3-7.7,16-14,23.2c-6.3,7.2-13.7,13.4-22.3,18.6s-18.1,9.3-28.5,12.2c-10.4,2.9-21.1,4.4-32.2,4.4
			c-16.8,0-32.5-3.3-46.9-9.9s-26.9-15.6-37.4-27.1c-10.6-11.5-18.8-24.7-24.8-39.7C366.3,1482.6,363.3,1466.5,363.3,1449.3z"/>
		<path class="st15" d="M784.2,1569.6L691.1,1442l-56.5,51.9v75.8h-23v-335.1h23v234.2l145-137.2h26.6l-99.6,96.8l102.8,141.4h-25.2
			V1569.6z"/>
		<path class="st15" d="M921.9,1574.2c-16.8,0-32.5-3.3-46.9-9.9s-26.9-15.6-37.4-27.1c-10.6-11.5-18.8-24.7-24.8-39.7
			c-6-15-9-31.1-9-48.2c0-16.8,3-32.7,9-47.5s14.2-27.9,24.6-39c10.4-11.2,22.7-20,37-26.4s29.6-9.6,46.2-9.6
			c16.8,0,32.5,3.3,46.9,9.9c14.4,6.6,26.8,15.5,37.2,26.6c10.4,11.2,18.5,24.2,24.3,39c5.8,14.9,8.7,30.5,8.7,47.1
			c0,1.5,0,3.4,0,5.7c0,2.3-0.2,3.8-0.5,4.4H827.9c0.9,13.8,4.1,26.6,9.6,38.4c5.5,11.8,12.5,22,20.9,30.5
			c8.4,8.6,18.1,15.3,29.2,20.2c11,4.9,22.8,7.3,35.4,7.3c8.3,0,16.4-1.1,24.3-3.4c8-2.3,15.4-5.4,22.3-9.4s13-8.8,18.4-14.5
			c5.4-5.7,9.6-11.9,12.6-18.6l20.2,5.5c-3.4,8.6-8.3,16.5-14.9,23.7c-6.6,7.2-14.2,13.4-23,18.6c-8.7,5.2-18.3,9.3-28.7,12.2
			C943.7,1572.7,932.9,1574.2,921.9,1574.2z M1015.6,1441.1c-0.9-14.1-4.1-26.9-9.4-38.6c-5.4-11.6-12.3-21.7-20.7-30.1
			c-8.4-8.4-18.1-15-29.2-19.8c-11-4.7-22.8-7.1-35.4-7.1c-12.6,0-24.3,2.4-35.4,7.1c-11,4.8-20.7,11.3-29.2,19.8
			c-8.4,8.4-15.2,18.5-20.2,30.3c-5.1,11.8-8,24.6-9,38.4L1015.6,1441.1L1015.6,1441.1z"/>
		<path class="st15" d="M1174.4,1558.1c-1.2,0.6-3.3,1.8-6.2,3.4c-2.9,1.7-6.6,3.3-11,4.8c-4.4,1.5-9.4,2.9-14.9,4.1
			c-5.5,1.2-11.5,1.8-17.9,1.8c-6.4,0-12.5-0.9-18.1-2.8c-5.7-1.8-10.6-4.6-14.9-8.3c-4.3-3.7-7.7-8.1-10.1-13.3
			c-2.5-5.2-3.7-11.3-3.7-18.4v-180h-33.5v-18.8h33.5v-81.8h23v81.8h55.6v18.8h-55.6v174.4c0,8.9,3.1,15.5,9.2,20
			c6.1,4.4,13,6.7,20.7,6.7c9.5,0,17.7-1.6,24.6-4.8c6.9-3.2,11.1-5.3,12.6-6.2L1174.4,1558.1z"/>
		<path class="st15" d="M1223.1,1374.5h-32.2v-39h32.2v-9.6c0-12.6,2-24.6,6-36.1s9.9-21.7,17.9-30.5c8-8.9,17.7-16,29.2-21.4
			c11.5-5.4,24.9-8,40.2-8c17.5,0,32.9,2.7,46.4,8c13.5,5.4,25.3,11.6,35.4,18.6l-20.7,37.7c-7-6.1-15.7-11.2-26-15.2
			c-10.3-4-20.9-6-31.9-6c-8,0-14.9,1.5-20.7,4.4c-5.8,2.9-10.6,6.8-14.2,11.7c-3.7,4.9-6.4,10.4-8.3,16.5
			c-1.8,6.1-2.8,12.4-2.8,18.8v11h125.8v234.2h-50.5v-195.1h-75.3v195.1h-50.5L1223.1,1374.5L1223.1,1374.5z"/>
		<path class="st15" d="M1442,1234.5h50.5v265.7c0,8.9,2.3,15.8,6.9,20.9c4.6,5.1,11,7.6,19.3,7.6c3.4,0,7.3-0.6,11.7-1.8
			c4.4-1.2,8.6-2.6,12.6-4.1l7.3,39.5c-7.3,3.4-16.1,6.1-26.2,8c-10.1,2-19.1,3-27.1,3c-17.5,0-31-4.7-40.6-14.2
			c-9.6-9.5-14.5-23-14.5-40.4L1442,1234.5L1442,1234.5z"/>
		<path class="st15" d="M1670.2,1574.2c-18.7,0-35.7-3.3-51-9.9s-28.4-15.5-39.3-26.9c-10.9-11.3-19.3-24.5-25.3-39.5
			c-6-15-9-30.9-9-47.8c0-16.8,3-32.8,9-48c6-15.2,14.4-28.5,25.3-40c10.9-11.5,24-20.5,39.3-27.1c15.3-6.6,32.5-9.9,51.4-9.9
			c18.7,0,35.6,3.4,50.8,10.1c15.2,6.7,28.1,15.7,38.8,26.9c10.7,11.2,18.9,24.2,24.6,39c5.7,14.9,8.5,30.4,8.5,46.6
			c0,3.7-0.2,7.1-0.5,10.3c-0.3,3.2-0.6,5.9-0.9,8h-192.4c0.9,10.7,3.4,20.4,7.6,28.9c4.1,8.6,9.5,16,16.1,22.3
			c6.6,6.3,14.1,11.1,22.5,14.5s17.2,5.1,26.4,5.1c6.7,0,13.4-0.8,20-2.5c6.6-1.7,12.6-4.1,18.1-7.3c5.5-3.2,10.4-7.1,14.7-11.7
			s7.7-9.6,10.1-15.2l43.2,12.4c-8.3,18.1-22,32.8-41.1,44.3C1717.9,1568.4,1695.6,1574.2,1670.2,1574.2z M1743.2,1431.4
			c-0.9-10.1-3.4-19.4-7.6-28c-4.1-8.6-9.4-15.8-15.8-21.8c-6.4-6-13.9-10.6-22.5-14c-8.6-3.4-17.6-5.1-27.1-5.1
			c-9.5,0-18.5,1.7-26.9,5.1s-15.8,8-22.3,14c-6.5,6-11.6,13.2-15.6,21.8c-4,8.6-6.4,17.9-7.3,28H1743.2z"/>
		<path class="st15" d="M1903.4,1574.2c-19.3,0-38.5-3.1-57.6-9.4s-35.6-15.2-49.4-26.9l20.2-32.2c14.4,10.4,28.6,18.3,42.7,23.7
			c14.1,5.4,28.5,8,43.2,8c15,0,26.9-2.9,35.6-8.7c8.7-5.8,13.1-14.1,13.1-24.8c0-10.1-4.9-17.5-14.7-22
			c-9.8-4.6-25.1-9.6-45.9-15.2c-15-4-27.9-7.8-38.6-11.5s-19.4-8-26.2-12.9c-6.7-4.9-11.6-10.6-14.7-17c-3.1-6.4-4.6-14.2-4.6-23.4
			c0-12.2,2.4-23.1,7.1-32.6c4.7-9.5,11.3-17.5,19.8-24.1c8.4-6.6,18.3-11.6,29.6-14.9c11.3-3.4,23.6-5.1,36.7-5.1
			c18.1,0,34.9,2.8,50.5,8.3s29.5,13.5,41.8,23.9l-21.6,30.3c-22.4-17.8-46.1-26.6-71.2-26.6c-12.9,0-23.7,2.7-32.4,8
			c-8.7,5.4-13.1,13.9-13.1,25.5c0,4.9,0.9,9,2.8,12.4c1.8,3.4,4.8,6.3,9,8.7c4.1,2.5,9.5,4.7,16.1,6.7c6.6,2,14.8,4.2,24.6,6.7
			c16.2,4,30.2,8,42,11.9c11.8,4,21.5,8.7,29.2,14c7.7,5.4,13.3,11.6,17,18.8c3.7,7.2,5.5,15.8,5.5,26c0,23-8.7,41.1-26,54.4
			C1956.5,1567.5,1933.1,1574.2,1903.4,1574.2z"/>
	</g>
</g>
</svg>
