<?xml version="1.0" encoding="utf-8"?>
<!-- Generator: Adobe Illustrator 21.0.0, SVG Export Plug-In . SVG Version: 6.00 Build 0)  -->
<svg version="1.1" xmlns="http://www.w3.org/2000/svg" xmlns:xlink="http://www.w3.org/1999/xlink" x="0px" y="0px"
	 viewBox="0 0 5800 1024" style="enable-background:new 0 0 5800 1024;" xml:space="preserve">
<style type="text/css">
	.st0{fill:#008AD1;}
	.st1{fill:#FFFFFF;}
	.st2{clip-path:url(#SVGID_2_);fill:#E2E2E2;}
	.st3{clip-path:url(#SVGID_4_);fill:#E0E0E0;}
	.st4{clip-path:url(#SVGID_6_);fill:#B5B5B5;}
	.st5{clip-path:url(#SVGID_8_);fill:#EF3535;}
	.st6{clip-path:url(#SVGID_10_);fill:#F74B4B;}
	.st7{fill:#FFEC39;}
	.st8{fill:#FF9752;}
	.st9{fill:#AAAAAA;}
	.st10{fill:#EAEAEA;}
	.st11{clip-path:url(#SVGID_12_);fill:#FFFFFF;}
	.st12{fill:#0067AD;}
	.st13{clip-path:url(#SVGID_14_);fill:#239DE8;}
	.st14{clip-path:url(#SVGID_16_);fill:#239DE8;}
	.st15{fill:#414649;}
	.st16{fill:#FAFEFF;}
</style>
<g id="background">
	<rect y="0" class="st0" width="5800" height="1024"/>
</g>
<g id="text">
	<g>
		<path class="st1" d="M1688.4,327.1c-46.7,1.3-87.5,15.2-122.5,41.5c-35,26.3-59.5,62.5-73.5,108.5v325h-50v-520h48v128
			c18-36.7,41.8-66.5,71.5-89.5c29.7-23,61.5-36.2,95.5-39.5c6.7-0.7,12.7-1,18-1c5.3,0,9.7,0,13,0V327.1z"/>
		<path class="st1" d="M1935.4,812.1c-36.7,0-70.5-7.2-101.5-21.5s-57.8-33.8-80.5-58.5c-22.7-24.7-40.3-53.3-53-86
			c-12.7-32.7-19-67-19-103c0-36.7,6.5-71.3,19.5-104c13-32.7,30.8-61.3,53.5-86c22.7-24.7,49.5-44.2,80.5-58.5
			c31-14.3,64.5-21.5,100.5-21.5s69.3,7.2,100,21.5c30.7,14.3,57.5,33.8,80.5,58.5c23,24.7,41,53.3,54,86
			c13,32.7,19.5,67.3,19.5,104c0,36-6.5,70.3-19.5,103c-13,32.7-30.8,61.3-53.5,86c-22.7,24.7-49.5,44.2-80.5,58.5
			S1971.4,812.1,1935.4,812.1z M1731.4,545.1c0,30.7,5.3,59.5,16,86.5c10.7,27,25.2,50.5,43.5,70.5c18.3,20,39.8,35.8,64.5,47.5
			c24.7,11.7,51,17.5,79,17.5s54.3-5.8,79-17.5c24.7-11.7,46.3-27.8,65-48.5c18.7-20.7,33.3-44.5,44-71.5c10.7-27,16-56.2,16-87.5
			c0-30.7-5.3-59.5-16-86.5c-10.7-27-25.3-50.7-44-71c-18.7-20.3-40.2-36.5-64.5-48.5c-24.3-12-50.5-18-78.5-18s-54.3,6-79,18
			c-24.7,12-46.2,28.3-64.5,49c-18.3,20.7-33,44.8-44,72.5C1736.9,485.3,1731.4,514.4,1731.4,545.1z"/>
		<path class="st1" d="M2233.4,540.1c0-36.7,6.3-71.3,19-104c12.7-32.7,30.3-61,53-85c22.7-24,49.7-43,81-57c31.3-14,65.7-21,103-21
			c47.3,0,89,10.7,125,32c36,21.3,63,51,81,89l-49,16c-15.3-28.7-37.2-51.2-65.5-67.5c-28.3-16.3-59.5-24.5-93.5-24.5
			c-28.7,0-55.3,5.7-80,17c-24.7,11.3-46.2,27-64.5,47c-18.3,20-32.8,43.5-43.5,70.5c-10.7,27-16,56.2-16,87.5
			c0,31.3,5.5,60.8,16.5,88.5c11,27.7,25.7,51.7,44,72c18.3,20.3,40,36.5,65,48.5s51.5,18,79.5,18c18,0,35.8-2.7,53.5-8
			c17.7-5.3,34-12.3,49-21c15-8.7,28-18.8,39-30.5c11-11.7,18.5-23.8,22.5-36.5l49,14c-6.7,18-16.8,34.8-30.5,50.5
			c-13.7,15.7-29.8,29.2-48.5,40.5c-18.7,11.3-39.3,20.2-62,26.5c-22.7,6.3-46,9.5-70,9.5c-36.7,0-70.7-7.2-102-21.5
			c-31.3-14.3-58.5-34-81.5-59s-41-53.8-54-86.5C2239.9,612.4,2233.4,577.4,2233.4,540.1z"/>
		<path class="st1" d="M3150.4,802.1l-203-278l-123,113v165h-50v-730h50v510l316-299h58l-217,211l224,308H3150.4z"/>
		<path class="st1" d="M3450.3,812.1c-36.7,0-70.7-7.2-102-21.5c-31.3-14.3-58.5-34-81.5-59s-41-53.8-54-86.5
			c-13-32.7-19.5-67.7-19.5-105c0-36.7,6.5-71.2,19.5-103.5c13-32.3,30.8-60.7,53.5-85c22.7-24.3,49.5-43.5,80.5-57.5
			s64.5-21,100.5-21c36.7,0,70.7,7.2,102,21.5c31.3,14.3,58.3,33.7,81,58c22.7,24.3,40.3,52.7,53,85c12.7,32.3,19,66.5,19,102.5
			c0,3.3,0,7.5,0,12.5s-0.3,8.2-1,9.5h-456c2,30,9,57.8,21,83.5c12,25.7,27.2,47.8,45.5,66.5c18.3,18.7,39.5,33.3,63.5,44
			c24,10.7,49.7,16,77,16c18,0,35.7-2.5,53-7.5c17.3-5,33.5-11.8,48.5-20.5c15-8.7,28.3-19.2,40-31.5c11.7-12.3,20.8-25.8,27.5-40.5
			l44,12c-7.3,18.7-18.2,35.8-32.5,51.5c-14.3,15.7-31,29.2-50,40.5c-19,11.3-39.8,20.2-62.5,26.5
			C3497.7,808.9,3474.3,812.1,3450.3,812.1z M3654.3,522.1c-2-30.7-8.8-58.7-20.5-84c-11.7-25.3-26.7-47.2-45-65.5
			c-18.3-18.3-39.5-32.7-63.5-43c-24-10.3-49.7-15.5-77-15.5c-27.3,0-53,5.2-77,15.5c-24,10.3-45.2,24.7-63.5,43
			c-18.3,18.3-33,40.3-44,66c-11,25.7-17.5,53.5-19.5,83.5H3654.3z"/>
		<path class="st1" d="M4000.3,777.1c-2.7,1.3-7.2,3.8-13.5,7.5c-6.3,3.7-14.3,7.2-24,10.5c-9.7,3.3-20.5,6.3-32.5,9s-25,4-39,4
			s-27.2-2-39.5-6c-12.3-4-23.2-10-32.5-18c-9.3-8-16.7-17.7-22-29c-5.3-11.3-8-24.7-8-40v-392h-73v-41h73v-178h50v178h121v41h-121
			v380c0,19.3,6.7,33.8,20,43.5c13.3,9.7,28.3,14.5,45,14.5c20.7,0,38.5-3.5,53.5-10.5s24.2-11.5,27.5-13.5L4000.3,777.1z"/>
		<path class="st1" d="M4106.3,377.1h-70v-85h70v-21c0-27.3,4.3-53.5,13-78.5c8.7-25,21.7-47.2,39-66.5
			c17.3-19.3,38.5-34.8,63.5-46.5c25-11.7,54.2-17.5,87.5-17.5c38,0,71.7,5.8,101,17.5c29.3,11.7,55,25.2,77,40.5l-45,82
			c-15.3-13.3-34.2-24.3-56.5-33c-22.3-8.7-45.5-13-69.5-13c-17.3,0-32.3,3.2-45,9.5c-12.7,6.3-23,14.8-31,25.5
			c-8,10.7-14,22.7-18,36c-4,13.3-6,27-6,41v24h274v510h-110v-425h-164v425h-110V377.1z"/>
		<path class="st1" d="M4583.3,72.1h110v579c0,19.3,5,34.5,15,45.5s24,16.5,42,16.5c7.3,0,15.8-1.3,25.5-4c9.7-2.7,18.8-5.7,27.5-9
			l16,86c-16,7.3-35,13.2-57,17.5s-41.7,6.5-59,6.5c-38,0-67.5-10.3-88.5-31c-21-20.7-31.5-50-31.5-88V72.1z"/>
		<path class="st1" d="M5080.3,812.1c-40.7,0-77.7-7.2-111-21.5c-33.3-14.3-61.8-33.8-85.5-58.5c-23.7-24.7-42-53.3-55-86
			c-13-32.7-19.5-67.3-19.5-104c0-36.7,6.5-71.5,19.5-104.5s31.3-62,55-87c23.7-25,52.2-44.7,85.5-59c33.3-14.3,70.7-21.5,112-21.5
			c40.7,0,77.5,7.3,110.5,22c33,14.7,61.2,34.2,84.5,58.5c23.3,24.3,41.2,52.7,53.5,85c12.3,32.3,18.5,66.2,18.5,101.5
			c0,8-0.3,15.5-1,22.5c-0.7,7-1.3,12.8-2,17.5h-419c2,23.3,7.5,44.3,16.5,63c9,18.7,20.7,34.8,35,48.5c14.3,13.7,30.7,24.2,49,31.5
			c18.3,7.3,37.5,11,57.5,11c14.7,0,29.2-1.8,43.5-5.5c14.3-3.7,27.5-9,39.5-16s22.7-15.5,32-25.5c9.3-10,16.7-21,22-33l94,27
			c-18,39.3-47.8,71.5-89.5,96.5C5184.1,799.6,5135.6,812.1,5080.3,812.1z M5239.3,501.1c-2-22-7.5-42.3-16.5-61
			c-9-18.7-20.5-34.5-34.5-47.5s-30.3-23.2-49-30.5c-18.7-7.3-38.3-11-59-11c-20.7,0-40.2,3.7-58.5,11
			c-18.3,7.3-34.5,17.5-48.5,30.5s-25.3,28.8-34,47.5c-8.7,18.7-14,39-16,61H5239.3z"/>
		<path class="st1" d="M5588.3,812.1c-42,0-83.8-6.8-125.5-20.5c-41.7-13.7-77.5-33.2-107.5-58.5l44-70c31.3,22.7,62.3,39.8,93,51.5
			c30.7,11.7,62,17.5,94,17.5c32.7,0,58.5-6.3,77.5-19c19-12.7,28.5-30.7,28.5-54c0-22-10.7-38-32-48c-21.3-10-54.7-21-100-33
			c-32.7-8.7-60.7-17-84-25c-23.3-8-42.3-17.3-57-28c-14.7-10.7-25.3-23-32-37c-6.7-14-10-31-10-51c0-26.7,5.2-50.3,15.5-71
			c10.3-20.7,24.7-38.2,43-52.5c18.3-14.3,39.8-25.2,64.5-32.5c24.7-7.3,51.3-11,80-11c39.3,0,76,6,110,18s64.3,29.3,91,52l-47,66
			c-48.7-38.7-100.3-58-155-58c-28,0-51.5,5.8-70.5,17.5c-19,11.7-28.5,30.2-28.5,55.5c0,10.7,2,19.7,6,27c4,7.3,10.5,13.7,19.5,19
			c9,5.3,20.7,10.2,35,14.5c14.3,4.3,32.2,9.2,53.5,14.5c35.3,8.7,65.8,17.3,91.5,26c25.7,8.7,46.8,18.8,63.5,30.5
			c16.7,11.7,29,25.3,37,41c8,15.7,12,34.5,12,56.5c0,50-18.8,89.5-56.5,118.5C5704.1,797.6,5653,812.1,5588.3,812.1z"/>
	</g>
</g>
<g id="rocket">
	<g>
		<defs>
			<path id="SVGID_1_" d="M288,564.9L288,564.9l123.4-278.3l-169.9-59.2c0,0-239.5,154.5-244.2,157.5S-102,515.3-102,515.3
				L288,564.9z"/>
		</defs>
		<clipPath id="SVGID_2_">
			<use xlink:href="#SVGID_1_"  style="overflow:visible;"/>
		</clipPath>
		<path class="st2" d="M1013.5,11.6c-239.3-38.8-434.7,67.8-602.1,275C210.1,273.7,116,387.6,36.6,516.7L291,551.9l-20.7,78.4
			l124.5,124.5l71.4-19.7l42.2,253.4C637.5,909,752.1,817.1,739.2,615.8C946.5,448.4,1052.3,250.8,1013.5,11.6z M608.4,503.5
			c-24,24-62.9,24-86.8,0s-24-62.9,0-86.8c24-24,62.9-24,86.8,0C632.4,440.6,632.4,479.5,608.4,503.5z M674.3,350.8
			c-38-38-38-99.5,0-137.5s99.5-38,137.5,0s38,99.5,0,137.5S712.2,388.8,674.3,350.8z"/>
	</g>
	<g>
		<defs>
			<path id="SVGID_3_" d="M462,738.9L462,738.9l277.9-127.8l59.6,180.3c0,0-147.5,226.5-150.5,231.2c-3,4.8-130.4,99.3-130.4,99.3
				L462,738.9z"/>
		</defs>
		<clipPath id="SVGID_4_">
			<use xlink:href="#SVGID_3_"  style="overflow:visible;"/>
		</clipPath>
		<path class="st3" d="M411.1,287.7C209.8,274.8,117.9,389.4,38.4,518.5l258.4,35.2L275,627.5l124,124l73-19.6l38.2,258.4
			c129.1-79.5,242.5-174,229.7-375.3c207.2-167.4,314.2-362.4,275.4-601.7C776.1-25.4,578.5,80.4,411.1,287.7z M610.3,418.5
			c24,24,24,62.9,0,86.8c-24,24-62.9,24-86.8,0c-24-24-24-62.9,0-86.8S586.3,394.5,610.3,418.5z M676.1,215.1c38-38,99.5-38,137.5,0
			s38,99.5,0,137.5s-99.5,38-137.5,0S638.1,253.1,676.1,215.1z"/>
	</g>
	<g>
		<defs>
			<path id="SVGID_5_" d="M411.1,287.7C209.8,274.8,117.9,389.4,38.4,518.5l258.4,35.2L275,627.5l124,124l73-19.6l38.2,258.4
				c129.1-79.5,242.5-174,229.7-375.3c207.2-167.4,314.2-362.4,275.4-601.7C776.1-25.4,578.5,80.4,411.1,287.7z M610.3,418.5
				c24,24,24,62.9,0,86.8c-24,24-62.9,24-86.8,0c-24-24-24-62.9,0-86.8S586.3,394.5,610.3,418.5z M676.1,215.1
				c38-38,99.5-38,137.5,0s38,99.5,0,137.5s-99.5,38-137.5,0S638.1,253.1,676.1,215.1z"/>
		</defs>
		<clipPath id="SVGID_6_">
			<use xlink:href="#SVGID_5_"  style="overflow:visible;"/>
		</clipPath>
		<path class="st4" d="M869.4,190.8C856,191.5,543.8-56.2,395,351.5C314.1,573,333.7,714,333.7,714l0,0l69.7,49.4l76.7,42.4l0,0
			c0,0,148-42.6,292.6-228.8C1038.9,234.2,875.9,202.6,869.4,190.8z"/>
	</g>
	<g>
		<defs>
			<path id="SVGID_7_" d="M488.4,971.2c0,0,18.6-4.9,106.9-69.4c119-86.9,212.1-235.7,212.1-235.7l-10.6,181.2l-268,167.2
				L488.4,971.2z"/>
		</defs>
		<clipPath id="SVGID_8_">
			<use xlink:href="#SVGID_7_"  style="overflow:visible;"/>
		</clipPath>
		<path class="st5" d="M411.1,287.7C209.8,274.8,117.9,389.4,38.4,518.5l258.4,35.2L275,627.5l124,124l73-19.6l38.2,258.4
			c129.1-79.5,242.5-174,229.7-375.3c207.2-167.4,314.2-362.4,275.4-601.7C776.1-25.4,578.5,80.4,411.1,287.7z M610.3,418.5
			c24,24,24,62.9,0,86.8c-24,24-62.9,24-86.8,0c-24-24-24-62.9,0-86.8S586.3,394.5,610.3,418.5z M676.1,215.1c38-38,99.5-38,137.5,0
			s38,99.5,0,137.5s-99.5,38-137.5,0S638.1,253.1,676.1,215.1z"/>
	</g>
	<g>
		<defs>
			<path id="SVGID_9_" d="M53.6,538.5c0,0,4.9-18.6,69.4-106.9c86.9-119,235.7-212.1,235.7-212.1l-188.2,17.6l-160.2,261L53.6,538.5
				z"/>
		</defs>
		<clipPath id="SVGID_10_">
			<use xlink:href="#SVGID_9_"  style="overflow:visible;"/>
		</clipPath>
		<path class="st6" d="M1013.5,11.6c-239.3-38.8-434.7,67.8-602.1,275C210.1,273.7,116,387.6,36.6,516.7L291,551.9l-20.7,78.4
			l124.5,124.5l71.4-19.7l42.2,253.4C637.5,909,752.1,817.1,739.2,615.8C946.5,448.4,1052.3,250.8,1013.5,11.6z M608.4,503.5
			c-24,24-62.9,24-86.8,0s-24-62.9,0-86.8c24-24,62.9-24,86.8,0C632.4,440.6,632.4,479.5,608.4,503.5z M674.3,350.8
			c-38-38-38-99.5,0-137.5s99.5-38,137.5,0s38,99.5,0,137.5S712.2,388.8,674.3,350.8z"/>
	</g>
	<polygon class="st7" points="367,785 241.3,659.2 97.7,796.2 93.9,932.2 230,928.5 	"/>
	<path class="st8" d="M367,785c-0.1,0.1-116.8,91.4-206.8,80.9c-10.5-90,81-206.7,81.1-206.7C176.1,670.5,110.2,714.8,64,806.1
		C34,863.6,11.7,951.5,2.1,1024c72.5-9.6,160.4-31.9,217.9-61.8C311.4,916,355.7,850.2,367,785z"/>
	<path class="st9" d="M934.8,1002.6"/>
	<path class="st10" d="M1017.8,8.7c-13.1-3-348.1-76.3-603.8,274.4C275,473.5,275,627.5,275,627.5l0,0l62,62l62,62l0,0
		c0,0,154,0,344.5-138.9C1094.1,356.8,1020.8,21.8,1017.8,8.7z"/>
	<g>
		<defs>
			<path id="SVGID_11_" d="M1017.8,8.7c-13.1-3-348.1-76.3-603.8,274.4C275,473.5,275,627.5,275,627.5l0,0l62,62l62,62l0,0
				c0,0,154,0,344.5-138.9C1094.1,356.8,1020.8,21.8,1017.8,8.7z"/>
		</defs>
		<clipPath id="SVGID_12_">
			<use xlink:href="#SVGID_11_"  style="overflow:visible;"/>
		</clipPath>
		<path class="st11" d="M947.8-61.3c-13.1-3-348.1-76.3-603.8,274.4C205,403.5,205,557.5,205,557.5l0,0l62,62l62,62l0,0
			c0,0,154,0,344.5-138.9C1024.1,286.8,950.8-48.2,947.8-61.3z"/>
	</g>
	<circle class="st12" cx="739.4" cy="287.3" r="100.5"/>
	<g>
		<defs>
			<circle id="SVGID_13_" cx="749.4" cy="317.3" r="100.5"/>
		</defs>
		<clipPath id="SVGID_14_">
			<use xlink:href="#SVGID_13_"  style="overflow:visible;"/>
		</clipPath>
		<circle class="st13" cx="739.4" cy="287.3" r="100.5"/>
	</g>
	<circle class="st12" cx="561.4" cy="464.3" r="64.5"/>
	<g>
		<defs>
			<circle id="SVGID_15_" cx="566.4" cy="480.3" r="64.5"/>
		</defs>
		<clipPath id="SVGID_16_">
			<use xlink:href="#SVGID_15_"  style="overflow:visible;"/>
		</clipPath>
		<circle class="st14" cx="561.4" cy="464.3" r="64.5"/>
	</g>
	<g>
		<path class="st15" d="M739.4,186.8c55.5,0,100.5,45,100.5,100.5s-45,100.5-100.5,100.5c-55.5,0-100.5-45-100.5-100.5
			S683.9,186.8,739.4,186.8 M739.4,170.8c-31.1,0-60.4,12.1-82.4,34.1s-34.1,51.3-34.1,82.4s12.1,60.4,34.1,82.4
			s51.3,34.1,82.4,34.1s60.4-12.1,82.4-34.1s34.1-51.3,34.1-82.4s-12.1-60.4-34.1-82.4S770.5,170.8,739.4,170.8L739.4,170.8z"/>
	</g>
	<g>
		<path class="st15" d="M561.4,399.8c35.6,0,64.5,28.9,64.5,64.5s-28.9,64.5-64.5,64.5c-35.6,0-64.5-28.9-64.5-64.5
			S525.8,399.8,561.4,399.8 M561.4,383.8c-44.4,0-80.5,36.1-80.5,80.5s36.1,80.5,80.5,80.5s80.5-36.1,80.5-80.5
			S605.8,383.8,561.4,383.8L561.4,383.8z"/>
	</g>
	
		<ellipse transform="matrix(0.9969 -7.899689e-02 7.899689e-02 0.9969 -16.2185 59.2111)" class="st16" cx="740.3" cy="234.6" rx="33" ry="17.2"/>
	
		<ellipse transform="matrix(0.9969 -7.899689e-02 7.899689e-02 0.9969 -31.6993 45.7675)" class="st16" cx="562.6" cy="423.5" rx="14.7" ry="6.8"/>
</g>
</svg>
